<svg width="417" height="317" viewBox="0 0 417 317" fill="none" xmlns="http://www.w3.org/2000/svg">
<g clip-path="url(#clip0)">
<path d="M166.863 65.7385H165.342V24.0995C165.342 20.9347 164.718 17.8009 163.506 14.877C162.294 11.9532 160.517 9.29645 158.277 7.0586C156.038 4.82075 153.379 3.04559 150.452 1.83448C147.526 0.623359 144.389 2.68146e-06 141.222 0H52.9303C46.5333 -1.21846e-05 40.3984 2.53902 35.8751 7.05854C31.3517 11.5781 28.8106 17.7079 28.8105 24.0995V252.534C28.8105 255.699 29.4344 258.833 30.6465 261.757C31.8587 264.681 33.6353 267.337 35.875 269.575C38.1147 271.813 40.7737 273.588 43.7 274.799C46.6264 276.01 49.7628 276.634 52.9302 276.634H141.222C147.619 276.634 153.754 274.095 158.277 269.575C162.8 265.056 165.342 258.926 165.342 252.534V95.3778H166.863V65.7385Z" fill="#3F3D56"/>
<path d="M142.195 6.26953H130.67C131.2 7.56784 131.402 8.97647 131.259 10.3713C131.116 11.7661 130.632 13.1044 129.849 14.2682C129.066 15.4319 128.009 16.3855 126.77 17.0449C125.532 17.7042 124.15 18.0492 122.747 18.0493H72.1657C70.7624 18.0492 69.3806 17.7042 68.1421 17.0449C66.9036 16.3855 65.8464 15.4319 65.0637 14.2682C64.2809 13.1044 63.7966 11.7662 63.6534 10.3713C63.5102 8.97647 63.7125 7.56784 64.2425 6.26953H53.4782C51.1127 6.26953 48.7705 6.73504 46.5851 7.63949C44.3998 8.54393 42.4141 9.8696 40.7415 11.5408C39.0689 13.212 37.7421 15.196 36.8369 17.3795C35.9317 19.563 35.4658 21.9033 35.4658 24.2668V252.366C35.4658 254.73 35.9317 257.07 36.8369 259.254C37.7421 261.437 39.0689 263.421 40.7415 265.092C42.4141 266.763 44.3998 268.089 46.5851 268.994C48.7705 269.898 51.1127 270.364 53.4781 270.364H142.195C144.56 270.364 146.903 269.898 149.088 268.994C151.273 268.089 153.259 266.763 154.932 265.092C156.604 263.421 157.931 261.437 158.836 259.254C159.741 257.07 160.207 254.73 160.207 252.366V24.2668C160.207 21.9033 159.741 19.563 158.836 17.3795C157.931 15.196 156.604 13.212 154.932 11.5408C153.259 9.8696 151.273 8.54393 149.088 7.63949C146.903 6.73504 144.56 6.26953 142.195 6.26953Z" fill="white"/>
<path d="M195.162 276.673H0.510895C0.375397 276.673 0.245448 276.619 0.149637 276.524C0.0538259 276.428 0 276.298 0 276.163C0 276.027 0.0538259 275.898 0.149637 275.802C0.245448 275.706 0.375397 275.652 0.510895 275.652H195.162C195.297 275.652 195.427 275.706 195.523 275.802C195.619 275.898 195.673 276.027 195.673 276.163C195.673 276.298 195.619 276.428 195.523 276.524C195.427 276.619 195.297 276.673 195.162 276.673Z" fill="#CBCBCB"/>
<path d="M97.8365 176.458C121.664 176.458 140.98 157.158 140.98 133.351C140.98 109.544 121.664 90.2441 97.8365 90.2441C74.0092 90.2441 54.6934 109.544 54.6934 133.351C54.6934 157.158 74.0092 176.458 97.8365 176.458Z" fill="#FCA311"/>
<path d="M93.5607 149.796C92.5901 149.797 91.6453 149.484 90.8687 148.902L90.8206 148.866L80.6814 141.116C80.2118 140.756 79.8177 140.308 79.5216 139.796C79.2255 139.284 79.0333 138.719 78.9558 138.133C78.8783 137.547 78.9171 136.951 79.07 136.38C79.2229 135.809 79.4869 135.273 79.8469 134.804C80.2069 134.335 80.6559 133.941 81.1682 133.645C81.6805 133.349 82.2461 133.157 82.8327 133.08C83.4193 133.002 84.0155 133.041 84.5871 133.194C85.1587 133.347 85.6946 133.611 86.1642 133.97L92.7316 139.002L108.251 118.773C108.61 118.304 109.059 117.91 109.571 117.615C110.083 117.319 110.649 117.127 111.235 117.049C111.822 116.972 112.417 117.011 112.989 117.164C113.56 117.316 114.096 117.58 114.565 117.94L114.567 117.941L114.47 118.074L114.569 117.941C115.516 118.668 116.136 119.741 116.292 120.924C116.448 122.107 116.128 123.303 115.402 124.251L97.1485 148.035C96.7262 148.583 96.1832 149.026 95.5617 149.331C94.9402 149.635 94.2568 149.792 93.5646 149.79L93.5607 149.796Z" fill="white"/>
<path d="M354.686 280.91C355.211 280.063 355.829 279.276 356.528 278.565C356.817 278.266 357.121 277.984 357.435 277.71C359.342 276.014 361.668 274.856 364.172 274.355C366.676 273.854 369.268 274.029 371.682 274.861C374.097 275.693 376.245 277.152 377.908 279.089C379.57 281.026 380.686 283.371 381.141 285.881C383.248 278.096 377.763 270.427 372.249 264.536C366.731 258.647 360.425 252.187 360.457 244.118C360.472 239.628 362.67 235.623 365.989 232.653C366.092 232.563 366.194 232.473 366.298 232.386C370.31 228.951 375.471 227.154 380.751 227.354C390.559 227.879 399.124 234.466 405.072 242.279C414.645 254.85 418.84 272.497 412.138 286.807C406.243 299.394 393.67 306.868 380.838 312.876C379.046 313.716 377.258 314.53 375.473 315.318C375.462 315.321 375.449 315.33 375.437 315.333C375.351 315.371 375.265 315.408 375.184 315.447C374.816 315.609 374.448 315.772 374.083 315.932L374.252 316.043L374.779 316.384C374.596 316.273 374.415 316.166 374.232 316.055C374.178 316.022 374.12 315.99 374.066 315.957C367.764 312.178 361.374 308.181 357.02 302.282C352.505 296.158 350.689 287.385 354.686 280.91Z" fill="#F1F1F1"/>
<path d="M396.734 266.686C398.13 269.858 399.055 273.217 399.48 276.656C399.815 279.722 399.689 282.821 399.107 285.85C397.855 292.075 395.126 297.909 391.149 302.86C388.148 306.619 384.683 309.985 380.838 312.876C379.046 313.715 377.258 314.529 375.473 315.317C375.461 315.32 375.449 315.329 375.437 315.332C375.351 315.37 375.265 315.407 375.184 315.446C374.816 315.609 374.448 315.771 374.082 315.931L374.252 316.042L374.779 316.383C374.596 316.273 374.415 316.165 374.232 316.055C374.178 316.021 374.12 315.989 374.066 315.956C375.453 311.108 375.657 306 374.661 301.057C373.665 296.115 371.497 291.483 368.34 287.55C365.167 283.667 361.119 280.588 356.528 278.564C356.817 278.265 357.121 277.984 357.434 277.71C359.203 278.521 360.896 279.487 362.494 280.596C368.21 284.543 372.502 290.224 374.734 296.798C376.728 302.762 376.977 309.171 375.452 315.271C375.769 315.065 376.086 314.853 376.395 314.642C382.266 310.686 387.677 305.935 391.753 300.108C395.268 295.184 397.518 289.472 398.303 283.475C399.084 276.924 397.444 270.481 394.517 264.636C391.284 258.382 387.211 252.599 382.41 247.448C377.589 242.155 372.137 237.471 366.176 233.501C366.042 233.411 365.947 233.272 365.913 233.114C365.878 232.956 365.905 232.791 365.989 232.652C366.053 232.526 366.164 232.43 366.298 232.386C366.366 232.368 366.438 232.366 366.507 232.38C366.576 232.394 366.64 232.424 366.697 232.466C367.432 232.957 368.162 233.452 368.883 233.961C374.885 238.208 380.336 243.183 385.111 248.773C389.725 254.161 393.924 260.147 396.734 266.686Z" fill="white"/>
<path d="M268.241 20.0155C273.301 20.0155 277.403 15.9168 277.403 10.8608C277.403 5.80477 273.301 1.70605 268.241 1.70605C263.18 1.70605 259.078 5.80477 259.078 10.8608C259.078 15.9168 263.18 20.0155 268.241 20.0155Z" fill="#F1F1F1"/>
<path d="M382.17 142.527C385.255 142.527 387.756 140.028 387.756 136.946C387.756 133.863 385.255 131.364 382.17 131.364C379.085 131.364 376.584 133.863 376.584 136.946C376.584 140.028 379.085 142.527 382.17 142.527Z" fill="#F1F1F1"/>
<path d="M218.685 157.842C221.77 157.842 224.271 155.343 224.271 152.26C224.271 149.178 221.77 146.679 218.685 146.679C215.6 146.679 213.099 149.178 213.099 152.26C213.099 155.343 215.6 157.842 218.685 157.842Z" fill="#F1F1F1"/>
<path d="M221.838 317H416.489C416.624 317 416.754 316.947 416.85 316.851C416.946 316.755 417 316.625 417 316.49C417 316.355 416.946 316.225 416.85 316.129C416.754 316.033 416.624 315.979 416.489 315.979H221.838C221.703 315.979 221.573 316.033 221.477 316.129C221.381 316.225 221.327 316.355 221.327 316.49C221.327 316.625 221.381 316.755 221.477 316.851C221.573 316.947 221.703 317 221.838 317Z" fill="#CBCBCB"/>
<path d="M395.008 49.3292C395.264 47.5161 394.845 45.6723 393.831 44.1472C392.817 42.622 391.278 41.5216 389.506 41.0543C387.734 40.587 385.852 40.7854 384.217 41.6119C382.582 42.4383 381.307 43.8354 380.633 45.5384L364.838 63.6315L369.473 76.5651L385.358 55.424C386.394 55.7558 387.491 55.8564 388.571 55.7188C389.651 55.5813 390.687 55.2088 391.607 54.6277C392.527 54.0466 393.308 53.2711 393.896 52.3556C394.484 51.4402 394.863 50.4071 395.008 49.3292Z" fill="#FFB7B7"/>
<path d="M329.533 119.729L381.966 63.8183L374.894 52.584L309.13 108.155L329.533 119.729Z" fill="#3F3D56"/>
<path d="M317.832 85.7585C327.989 85.7585 336.224 77.5309 336.224 67.3817C336.224 57.2325 327.989 49.0049 317.832 49.0049C307.674 49.0049 299.439 57.2325 299.439 67.3817C299.439 77.5309 307.674 85.7585 317.832 85.7585Z" fill="#2F2E41"/>
<path d="M319.31 57.0003C323.267 52.9903 328.057 49.8959 333.34 47.9349C336.732 46.6794 340.424 45.9037 343.969 46.6167C347.515 47.3297 350.869 49.7806 351.858 53.2567C352.667 56.0992 351.832 59.1597 350.576 61.8354C349.321 64.5112 347.645 66.9924 346.63 69.768C345.594 72.6001 345.282 75.6458 345.723 78.6287C346.165 81.6116 347.344 84.4372 349.156 86.849C350.967 89.2608 353.352 91.1824 356.095 92.4394C358.838 93.6964 361.852 94.249 364.863 94.047C361.379 94.5137 358.168 96.1496 354.762 97.0204C351.357 97.8911 347.338 97.8321 344.807 95.3944C342.129 92.8153 342.076 88.622 342.205 84.9082C342.398 79.3875 342.59 73.8668 342.783 68.3461C342.881 65.5306 342.965 62.6249 341.948 59.9971C340.932 57.3693 338.517 55.0682 335.698 55.0921C333.561 55.1102 331.669 56.4037 329.956 57.6792C328.242 58.9547 326.428 60.3156 324.3 60.5053C322.172 60.6951 319.741 59.1212 319.901 56.9921L319.31 57.0003Z" fill="#2F2E41"/>
<path d="M247.977 190.773C246.211 191.263 244.327 191.089 242.681 190.284C241.035 189.478 239.742 188.098 239.047 186.404C238.352 184.71 238.303 182.819 238.909 181.092C239.515 179.364 240.735 177.918 242.337 177.029L258.226 159.018L271.665 161.919L252.763 180.417C253.228 181.4 253.471 182.474 253.476 183.561C253.48 184.649 253.246 185.724 252.79 186.711C252.333 187.699 251.666 188.574 250.834 189.276C250.003 189.978 249.027 190.489 247.977 190.773H247.977Z" fill="#FFB7B7"/>
<path d="M300.252 126.292L260.65 175.96L248.578 170.423L295.126 98.0156L300.252 126.292Z" fill="#3F3D56"/>
<path d="M268.653 276.27L259.215 276.122L260.35 308.264H268.652L268.653 276.27Z" fill="#FFB7B7"/>
<path d="M270.769 305.556L254.42 305.556H254.419C251.656 305.556 249.006 306.653 247.052 308.605C245.098 310.557 244 313.205 244 315.966V316.304L270.768 316.305L270.769 305.556Z" fill="#2F2E41"/>
<path d="M331.143 267.745L320.833 274.359L341.457 299.15L348.443 294.668L331.143 267.745Z" fill="#FFB7B7"/>
<path d="M348.761 291.246L335.003 300.071L335.002 300.072C332.677 301.564 331.041 303.917 330.452 306.615C329.863 309.312 330.371 312.133 331.864 314.456L332.047 314.741L354.573 300.291L348.761 291.246Z" fill="#2F2E41"/>
<path d="M334.817 169.598C334.817 169.598 311.909 93.5754 304.547 92.548C297.185 91.5207 285.323 112.055 285.323 112.055C269.944 131.661 254.085 195.169 254.085 195.169C254.085 195.169 280.522 196.822 299.847 207.095C319.173 217.369 341.98 206.575 341.98 206.575L334.817 169.598Z" fill="#3F3D56"/>
<path opacity="0.1" d="M334.817 169.598C334.817 169.598 311.909 93.575 304.547 92.5477C297.185 91.5204 288.336 112.263 288.336 112.263C280.672 143.911 254.085 195.169 254.085 195.169C254.085 195.169 280.522 196.822 299.847 207.095C319.173 217.368 341.98 206.575 341.98 206.575L334.817 169.598Z" fill="black"/>
<path d="M316.023 146.852V185.053L320.522 240.39L343.001 282.248L332.273 289.905L301.619 250.089L289.495 210.554L270.454 298.073L256.149 297.052L266.084 175.708L284.937 141.553L316.023 146.852Z" fill="#2F2E41"/>
<path d="M292.925 109.904C285.773 117.05 292.415 124.707 292.415 124.707L284.24 143.084L316.427 151.762L327.675 101.543L320.011 93.3757C304.684 92.8652 304.676 92.5479 304.676 92.5479C301.991 95.1736 292.925 109.904 292.925 109.904Z" fill="#FCA311"/>
<path d="M328.971 96.3404C327.509 95.2623 325.847 94.4846 324.082 94.0525C322.318 93.6205 320.485 93.5425 318.69 93.8233C316.895 94.104 315.173 94.7379 313.625 95.6881C312.077 96.6383 310.732 97.8859 309.67 99.3588C301.579 110.616 294.097 128.793 304.406 151.463C320.958 187.864 335.362 206.499 341.218 206.497C341.474 206.499 341.728 206.459 341.971 206.379C345.575 205.157 350.787 199.063 351.73 193.692C352.068 191.77 351.988 189.093 349.687 187.254C343.078 181.973 331.214 165.528 327.513 143.883C325.468 131.923 329.434 121.028 333.122 113.995C334.679 111.085 335.135 107.712 334.405 104.493C333.675 101.274 331.809 98.4265 329.148 96.4713L328.971 96.3404Z" fill="#3F3D56"/>
<path d="M318.778 83.953C325.339 80.3694 327.75 72.1502 324.163 65.5947C320.577 59.0393 312.351 56.63 305.79 60.2136C299.229 63.7971 296.818 72.0164 300.404 78.5719C303.991 85.1273 312.217 87.5365 318.778 83.953Z" fill="#FFB7B7"/>
<path d="M293.243 71.0602H312.793L312.993 68.2558L313.996 71.0602H317.006L317.403 65.502L319.39 71.0602H325.214V70.7848C325.21 66.9152 323.67 63.2054 320.931 60.4692C318.193 57.7329 314.48 56.1938 310.607 56.1895H307.851C303.978 56.1938 300.265 57.7329 297.526 60.4691C294.788 63.2054 293.248 66.9152 293.243 70.7848V71.0602Z" fill="#2F2E41"/>
<path d="M322.261 81.141L330.604 78.4362V58.1934H314.846L315.236 58.5826C320.664 63.9991 326.701 83.2162 322.261 81.141Z" fill="#2F2E41"/>
</g>
<defs>
<clipPath id="clip0">
<rect width="417" height="317" fill="white"/>
</clipPath>
</defs>
</svg>
